HIERARCHY
ROOT hip
{
  OFFSET 0.0 0.0 0.0
  CHANNELS 6 Xposition Yposition Zposition Zrotation Yrotation Xrotation
  JOINT torso
  {
    OFFSET 0.0 0.0 0.0
    CHANNELS 3 Zrotation Xrotation Yrotation
    JOINT neck
    {
      OFFSET -20.11218299999996 327.95800799999995 66.30578600000035
      CHANNELS 3 Zrotation Xrotation Yrotation
      JOINT head
      {
        OFFSET 18.28939800000012 288.83178699999996 217.81652800000006
        CHANNELS 3 Zrotation Xrotation Yrotation
        End Site
        {
          OFFSET 0.0 0.0 0.0
        }
      }
    }
    JOINT left_collar
    {
      OFFSET -20.11218299999996 327.95800799999995 66.30578600000035
      CHANNELS 3 Zrotation Xrotation Yrotation
      JOINT left_upper_arm
      {
        OFFSET -127.08163400000001 -16.17407199999991 15.44799799999987
        CHANNELS 3 Zrotation Xrotation Yrotation
        JOINT left_forearm
        {
          OFFSET -234.267792 45.78796399999999 109.31286600000021
          CHANNELS 3 Zrotation Xrotation Yrotation
          JOINT left_hand
          {
            OFFSET -259.114014 -33.25433399999997 16.18847699999992
            CHANNELS 3 Zrotation Xrotation Yrotation
            End Site
            {
              OFFSET 0.0 0.0 0.0
            }
          }
        }
      }
    }
    JOINT right_collar
    {
      OFFSET -20.11218299999996 327.95800799999995 66.30578600000035
      CHANNELS 3 Zrotation Xrotation Yrotation
      JOINT right_upper_arm
      {
        OFFSET 164.513184 1.5733030000000099 4.892333999999892
        CHANNELS 3 Zrotation Xrotation Yrotation
        JOINT right_forearm
        {
          OFFSET 260.742027 48.718444999999974 144.35229500000014
          CHANNELS 3 Zrotation Xrotation Yrotation
          JOINT right_hand
          {
            OFFSET 287.85150899999996 -44.57171600000015 13.96813899999961
            CHANNELS 3 Zrotation Xrotation Yrotation
            End Site
            {
              OFFSET 0.0 0.0 0.0
            }
          }
        }
      }
    }
  }
}
MOTION
Frames: 9
Frame Time: 0.01
-238.12994616336618 310.67738586449616 1553.4142113699825 0.1695569995130397 4.0261401636373835 -14.838238757495834 0.465000153934835 -2.5446313845543003 -0.2593168320989565 -5.152403530759924 0.242778292987204 3.877671726695512 0.0 0.0 0.0 2.946328195214886 -3.0088647692887784 22.136936512075028 -9.506851978486834 -33.07049886111636 -62.52671631336118 -32.05469591809183 -4.993249634659399 -19.1460341636998 0.0 0.0 0.0 1.3646266123562885 -0.012105855689996283 -1.326046224629479 3.2509738791571143 -28.661059158335277 67.5202151624399 33.17218834729112 -5.003971090509232 24.30962876817231 0.0 0.0 0.0
-237.47883715686643 310.31560636530315 1553.9896487105993 0.18822925928163745 4.010445371975102 -14.828806431321855 0.4545916477164309 -2.5421170479996276 -0.2568272895081879 -5.1185247914290075 0.16181186232161682 3.8586971708168734 0.0 0.0 0.0 2.9346749290273157 -2.9468689280814946 21.735306118956892 -9.130496430821616 -32.47059827284983 -62.47663963198077 -31.76775313152535 -4.995758546074282 -19.58978819655451 0.0 0.0 0.0 1.392685257521167 -0.014229470988436368 -1.2517368343396027 2.9715128562672066 -28.24518534540762 67.67408119821764 32.892935507924165 -4.959629389802808 24.52508116145741 0.0 0.0 0.0
-236.82337656062896 309.9483397542684 1554.5762622699303 0.20782395425774974 3.991524971876333 -14.817437489442382 0.4437665436050117 -2.5385191123695985 -0.25417518559562 -5.084144280059715 0.08242609117329194 3.8391846828199325 0.0 0.0 0.0 2.9125148710102073 -2.8827850703319555 21.323941711798057 -8.757865340892828 -31.859804501759832 -62.40308421410283 -31.47865654227982 -4.996042083788602 -20.036829732649615 0.0 0.0 0.0 1.4254745835821607 -0.016475084583332144 -1.1777247904563473 2.6933413728850573 -27.82386375477146 67.82142578938038 32.61316472480229 -4.913235556878961 24.734542287780002 0.0 0.0 0.0
-236.16289178908096 309.5755487769865 1555.1744964483382 0.22786091918833723 3.969537130218342 -14.804917057443364 0.4329588492549621 -2.5339557822028813 -0.25146545974215734 -5.049765230717772 0.00445492788791463 3.8195305680714213 0.0 0.0 0.0 2.8817485523156434 -2.8181779600471053 20.91155092164708 -8.389290776906263 -31.246197906864055 -62.31559184488104 -31.189853878129217 -4.993786694765457 -20.481512579586703 0.0 0.0 0.0 1.4621861277236945 -0.018822346682556716 -1.1045932716356075 2.4169666065950546 -27.39913512650197 67.9634758214126 32.33365429162867 -4.864937020149051 24.937236009587423 0.0 0.0 0.0
-235.49657657915856 309.19725100660196 1555.7848675662417 0.24781256127577383 3.944690638829132 -14.7921074842328 0.4226456228450294 -2.528585393300749 -0.2488151456316659 -5.015931318133403 -0.07228184297283345 3.800163366766049 0.0 0.0 0.0 2.844344537050339 -2.7545203376274485 20.50645573206615 -8.025009770513655 -30.637202584482324 -62.22352534611247 -30.903691309102165 -4.988812614672959 -20.918623963172912 0.0 0.0 0.0 1.5019512751196584 -0.021248708325643743 -1.0328369292097364 2.1429150840173325 -26.97309070342976 68.10149669231474 32.05515266630168 -4.814894935337998 25.132449003526236 0.0 0.0 0.0
-234.82351861817486 308.81351886573304 1556.4079506194546 0.26712178687945637 3.9172359543056046 -14.779925128094606 0.4133320448894689 -2.5226021089311783 -0.2463497031707457 -4.983212864309623 -0.1479673221169019 3.7815324692147225 0.0 0.0 0.0 2.8022848675630168 -2.693147659366362 20.11634855953088 -7.6652042743649815 -30.03941226085364 -62.135733016694374 -30.622334260297762 -4.9810643483366555 -21.343514405331543 0.0 0.0 0.0 1.5438753333376494 -0.023730382576775053 -0.9628466133268505 1.8717159377162063 -26.5478083914859 68.23675458090541 31.778367963284374 -4.763281473467095 25.31954373141476 0.0 0.0 0.0
-234.1427331862037 308.4244789320862 1557.0443619438113 0.28522441886359445 3.8874522285368367 -14.769311124330699 0.4055329681187331 -2.516228112493603 -0.24419835942755388 -4.952190187051241 -0.2227753044939059 3.764094487383253 0.0 0.0 0.0 2.7575122836212365 -2.635222920606134 19.74808082551677 -7.310034893368587 -29.45847110416698 -62.0602542034306 -30.34769762373427 -4.970593359564467 -21.752194029986097 0.0 0.0 0.0 1.5870682991502978 -0.026243283111848634 -0.8949035888187813 1.6038857499766304 -26.12529289082282 68.3704775633053 31.503959219632414 -4.710277052385937 25.497969864394616 0.0 0.0 0.0
-233.45320180558116 308.0303105877307 1557.6947381987857 0.3015749419846572 3.8556310552947224 -14.76119730884255 0.3997518123546272 -2.5097028556599583 -0.24248869778507806 -4.923434673140822 -0.2968575750042331 3.7482978548877366 0.0 0.0 0.0 2.711881755100503 -2.5817122799045427 19.407491816375224 -6.959666795419421 -28.899007813012904 -62.00407897600116 -30.081389636113368 -4.957535637038496 -22.14139458056977 0.0 0.0 0.0 1.6306706624053429 -0.02876383137814449 -0.8291833237123655 1.3399159375184677 -25.707422811675595 68.50381684563779 31.23252958934867 -4.656067628567257 25.667274045225646 0.0 0.0 0.0
-232.75391468457892 307.63124403156615 1558.3597122576114 0.3156740608314218 3.822058001227108 -14.756468920454791 0.3964579401890094 -2.5032702019883524 -0.2413408075258647 -4.897488367474194 -0.3703312172942499 3.7345662945964806 0.0 0.0 0.0 2.66711845975266 -2.5333714003368923 19.099283387682405 -6.614287440753327 -28.364618546480393 -61.972970734974 -29.824672462702136 -4.942086913993914 -22.50859814658397 0.0 0.0 0.0 1.6738732548454511 -0.03126954308201779 -0.7657680819472636 1.0802632931044767 -25.29590702481484 68.63780947842187 30.964621485252614 -4.600842132221971 25.82710788055126 0.0 0.0 0.0
